<svg width="1427" height="331" viewBox="0 0 1427 331" fill="none" xmlns="http://www.w3.org/2000/svg">
<path d="M1097 198V171.5C1097 169.843 1098.34 168.5 1100 168.5H1132C1154.5 168.5 1158 128.5 1132 128.5H1097" stroke="white" stroke-width="18" stroke-linecap="round"/>
<path d="M1276 198V171.5C1276 169.843 1277.34 168.5 1279 168.5H1311M1311 168.5C1333.5 168.5 1337 128.5 1311 128.5H1276M1311 168.5L1330.5 198" stroke="white" stroke-width="18" stroke-linecap="round"/>
<path d="M853 167H879" stroke="white" stroke-width="18" stroke-linecap="round"/>
<path d="M917 127H967M917 197H967M917 161.5H967" stroke="white" stroke-width="18" stroke-linecap="round"/>
<path d="M1188 127H1238M1188 197H1238M1188 161.5H1238" stroke="white" stroke-width="18" stroke-linecap="round"/>
<path d="M1000.5 121L1016.5 142.5M1000.5 199L1029.85 161.5M1060 122.5L1029.85 161.5M1029.85 161.5C1029.85 161.5 1025.35 155 1059 199" stroke="white" stroke-width="18" stroke-linecap="round"/>
<path d="M373.411 73.7126C373.934 72.7684 374.925 72.1783 376.004 72.1674L450.618 71.4087C451.686 71.3978 452.679 71.9555 453.226 72.8729L491.681 137.41C492.228 138.328 492.245 139.467 491.727 140.401L455.546 205.66C455.023 206.604 454.032 207.194 452.953 207.205L378.339 207.964C377.271 207.975 376.278 207.417 375.731 206.499L337.276 141.962C336.73 141.044 336.712 139.906 337.23 138.972L373.411 73.7126Z" stroke="white" stroke-width="9"/>
<path d="M66.0968 52.416C66.6202 51.4719 67.6106 50.8818 68.69 50.8708L143.304 50.1121C144.372 50.1012 145.365 50.6589 145.912 51.5763L184.367 116.114C184.913 117.031 184.931 118.17 184.413 119.104L148.232 184.363C147.708 185.307 146.718 185.897 145.639 185.908L71.0246 186.667C69.9567 186.678 68.9635 186.12 68.4169 185.203L29.962 120.665C29.4154 119.748 29.3976 118.609 29.9155 117.675L66.0968 52.416Z" stroke="white" stroke-width="9"/>
<path d="M239.097 153.416C239.62 152.472 240.611 151.882 241.69 151.871L316.304 151.112C317.372 151.101 318.365 151.659 318.912 152.576L357.367 217.114C357.913 218.031 357.931 219.17 357.413 220.104L321.232 285.363C320.708 286.307 319.718 286.897 318.639 286.908L244.025 287.667C242.957 287.678 241.964 287.12 241.417 286.203L202.962 221.665C202.415 220.748 202.398 219.609 202.915 218.675L239.097 153.416Z" fill="white" stroke="white" stroke-width="9"/>
<path d="M296.5 132H315.817C316.863 132 317.832 131.456 318.377 130.564L328.5 114" stroke="white" stroke-width="9" stroke-linecap="round"/>
<circle cx="390" cy="283" r="11.5" stroke="white" stroke-width="9"/>
<circle cx="390" cy="283" r="11.5" stroke="white" stroke-width="9"/>
<circle cx="390" cy="283" r="11.5" stroke="white" stroke-width="9"/>
<circle cx="40" cy="234" r="11.5" stroke="white" stroke-width="9"/>
<circle cx="40" cy="234" r="11.5" stroke="white" stroke-width="9"/>
<circle cx="40" cy="234" r="11.5" stroke="white" stroke-width="9"/>
<circle cx="107" cy="16" r="11.5" stroke="white" stroke-width="9"/>
<circle cx="107" cy="16" r="11.5" stroke="white" stroke-width="9"/>
<circle cx="107" cy="16" r="11.5" stroke="white" stroke-width="9"/>
<path d="M590 122L590 199" stroke="white" stroke-width="18" stroke-linecap="round"/>
<path d="M632 199H611" stroke="white" stroke-width="18" stroke-linecap="round"/>
<path d="M671.5 171.5L690.796 129.838C691.867 127.526 695.151 127.517 696.234 129.824L725.993 193.225C726.927 195.215 725.476 197.5 723.278 197.5H657" stroke="white" stroke-width="18" stroke-linecap="round"/>
<path d="M756 129H801.5C822 129 823.5 162 801.5 162M801.5 162H756M801.5 162C824.5 162 826 196.5 801.5 196.5H756" stroke="white" stroke-width="18" stroke-linecap="round"/>
<path d="M1361.5 128.5H1369M1391 200.5V131.5C1391 129.843 1392.34 128.5 1394 128.5H1418" stroke="white" stroke-width="18" stroke-linecap="round"/>
<path d="M220.5 326L232 305M232 305H255M232 305L221.5 285" stroke="white" stroke-width="9" stroke-linecap="round"/>
<path d="M46.5 187L58 204.5M58 204.5H80M58 204.5L46 222.5" stroke="white" stroke-width="9" stroke-linecap="round"/>
<path d="M342 282L352.704 263M362 246.5L352.704 263M352.704 263L378.5 276.5" stroke="white" stroke-width="9" stroke-linecap="round"/>
<path d="M217 159L207.195 175M198 190.5L207.195 175M207.195 175L179.195 158.014" stroke="white" stroke-width="9" stroke-linecap="round"/>
</svg>
