<svg width="477" height="331" viewBox="0 0 477 331" fill="none" xmlns="http://www.w3.org/2000/svg">
<path d="M352.411 73.7125C352.934 72.7683 353.925 72.1782 355.004 72.1673L429.618 71.4086C430.686 71.3977 431.679 71.9554 432.226 72.8728L470.681 137.41C471.228 138.328 471.245 139.467 470.727 140.401L434.546 205.66C434.023 206.604 433.032 207.194 431.953 207.205L357.339 207.964C356.271 207.975 355.278 207.417 354.731 206.499L316.276 141.962C315.73 141.044 315.712 139.906 316.23 138.972L352.411 73.7125Z" stroke="white" stroke-width="9"/>
<path d="M45.0967 52.4161C45.6201 51.472 46.6105 50.8819 47.6899 50.8709L122.304 50.1122C123.372 50.1013 124.365 50.659 124.912 51.5764L163.367 116.114C163.913 117.031 163.931 118.17 163.413 119.104L127.232 184.363C126.708 185.307 125.718 185.897 124.639 185.908L50.0245 186.667C48.9566 186.678 47.9634 186.12 47.4168 185.203L8.96186 120.665C8.41526 119.748 8.39746 118.609 8.91536 117.675L45.0967 52.4161Z" stroke="white" stroke-width="9"/>
<path d="M218.097 153.416C218.62 152.472 219.611 151.882 220.69 151.871L295.304 151.112C296.372 151.101 297.365 151.659 297.912 152.576L336.367 217.114C336.913 218.031 336.931 219.17 336.413 220.104L300.232 285.363C299.708 286.307 298.718 286.897 297.639 286.908L223.025 287.667C221.957 287.678 220.964 287.12 220.417 286.203L181.962 221.665C181.415 220.748 181.398 219.609 181.915 218.675L218.097 153.416Z" fill="white" stroke="white" stroke-width="9"/>
<path d="M275.5 132H294.817C295.863 132 296.832 131.456 297.377 130.564L307.5 114" stroke="white" stroke-width="9" stroke-linecap="round"/>
<path d="M369 294.5C375.351 294.5 380.5 289.351 380.5 283C380.5 276.649 375.351 271.5 369 271.5C362.649 271.5 357.5 276.649 357.5 283C357.5 289.351 362.649 294.5 369 294.5Z" stroke="white" stroke-width="9"/>
<path d="M369 294.5C375.351 294.5 380.5 289.351 380.5 283C380.5 276.649 375.351 271.5 369 271.5C362.649 271.5 357.5 276.649 357.5 283C357.5 289.351 362.649 294.5 369 294.5Z" stroke="white" stroke-width="9"/>
<path d="M369 294.5C375.351 294.5 380.5 289.351 380.5 283C380.5 276.649 375.351 271.5 369 271.5C362.649 271.5 357.5 276.649 357.5 283C357.5 289.351 362.649 294.5 369 294.5Z" stroke="white" stroke-width="9"/>
<path d="M19 245.5C25.3513 245.5 30.5 240.351 30.5 234C30.5 227.649 25.3513 222.5 19 222.5C12.6487 222.5 7.5 227.649 7.5 234C7.5 240.351 12.6487 245.5 19 245.5Z" stroke="white" stroke-width="9"/>
<path d="M19 245.5C25.3513 245.5 30.5 240.351 30.5 234C30.5 227.649 25.3513 222.5 19 222.5C12.6487 222.5 7.5 227.649 7.5 234C7.5 240.351 12.6487 245.5 19 245.5Z" stroke="white" stroke-width="9"/>
<path d="M19 245.5C25.3513 245.5 30.5 240.351 30.5 234C30.5 227.649 25.3513 222.5 19 222.5C12.6487 222.5 7.5 227.649 7.5 234C7.5 240.351 12.6487 245.5 19 245.5Z" stroke="white" stroke-width="9"/>
<path d="M86 27.5C92.3513 27.5 97.5 22.3513 97.5 16C97.5 9.64873 92.3513 4.5 86 4.5C79.6487 4.5 74.5 9.64873 74.5 16C74.5 22.3513 79.6487 27.5 86 27.5Z" stroke="white" stroke-width="9"/>
<path d="M86 27.5C92.3513 27.5 97.5 22.3513 97.5 16C97.5 9.64873 92.3513 4.5 86 4.5C79.6487 4.5 74.5 9.64873 74.5 16C74.5 22.3513 79.6487 27.5 86 27.5Z" stroke="white" stroke-width="9"/>
<path d="M86 27.5C92.3513 27.5 97.5 22.3513 97.5 16C97.5 9.64873 92.3513 4.5 86 4.5C79.6487 4.5 74.5 9.64873 74.5 16C74.5 22.3513 79.6487 27.5 86 27.5Z" stroke="white" stroke-width="9"/>
<path d="M199.5 326L211 305M211 305H234M211 305L200.5 285" stroke="white" stroke-width="9" stroke-linecap="round"/>
<path d="M25.5 187L37 204.5M37 204.5H59M37 204.5L25 222.5" stroke="white" stroke-width="9" stroke-linecap="round"/>
<path d="M321 282L331.704 263M331.704 263L341 246.5M331.704 263L357.5 276.5" stroke="white" stroke-width="9" stroke-linecap="round"/>
<path d="M196 159L186.195 175M186.195 175L177 190.5M186.195 175L158.195 158.014" stroke="white" stroke-width="9" stroke-linecap="round"/>
</svg>
