<?xml version="1.0" encoding="utf-8"?>
<svg viewBox="0 0 5503.07 2899.13" width="160.07" height="60.13" style="shape-rendering:geometricPrecision; text-rendering:geometricPrecision; image-rendering:optimizeQuality; fill-rule:evenodd; clip-rule:evenodd" xmlns="http://www.w3.org/2000/svg">
  <defs>
    <style type="text/css">
   
    .fil0 {fill:#373736}
    .fil5 {fill:#2B2A29}
    .fil3 {fill:#EF7F1A}
    .fil2 {fill:#CE4C21}
    .fil4 {fill:#E51A4B}
    .fil1 {fill:#AC2045}
   
  </style>
  </defs>
  <g id="Слой_x0020_1">
    <g id="_916374816">
      <path class="fil0" d="M1544.2 2459.1l0 188.43c0,3 -0.43,4.9 -1.25,5.72 -0.82,0.82 -2.71,1.24 -5.68,1.24l-49.11 0c-2.97,0 -4.87,-0.42 -5.7,-1.24 -0.82,-0.82 -1.24,-2.72 -1.24,-5.72l0 -188.43 -56.52 0c-2.65,0 -4.48,-0.51 -5.47,-1.5 -0.97,-0.98 -1.48,-2.8 -1.48,-5.45l0 -35.71c0,-2.65 0.51,-4.47 1.48,-5.46 1,-0.99 2.82,-1.48 5.47,-1.48l181 0c4.63,0 7.29,0.99 7.94,2.98 0.65,1.98 0.49,4.29 -0.51,6.95l-6.92 32.73c-1.35,4.63 -3.83,6.95 -7.46,6.95l-54.55 0zm289.54 -25.31l0 0c20.82,21.83 31.24,54.56 31.24,98.2 0,43.65 -10.42,76.38 -31.24,98.21 -20.82,21.82 -46.27,32.72 -76.36,32.72 -30.1,0 -55.55,-10.91 -76.37,-32.72 -20.83,-21.83 -31.24,-54.56 -31.24,-98.21 0,-43.64 10.41,-76.37 31.24,-98.2 20.81,-21.82 46.26,-32.71 76.37,-32.71 30.09,0 55.54,10.9 76.36,32.71zm-92.73 176.31l0 0c4.62,2.15 10.08,3.22 16.37,3.22 6.27,0 11.74,-1.07 16.36,-3.22 4.63,-2.16 8.44,-5.39 11.41,-9.67 2.99,-4.29 5.36,-8.78 7.19,-13.4 1.8,-4.63 3.14,-10.4 3.97,-17.35 0.82,-6.95 1.32,-13.07 1.48,-18.36 0.16,-5.29 0.26,-11.73 0.26,-19.34 0,-7.6 -0.1,-14.04 -0.26,-19.34 -0.16,-5.29 -0.66,-11.4 -1.48,-18.36 -0.82,-6.94 -2.16,-12.71 -3.97,-17.34 -1.83,-4.64 -4.21,-9.11 -7.19,-13.4 -2.97,-4.29 -6.78,-7.52 -11.41,-9.67 -4.62,-2.15 -10.09,-3.22 -16.36,-3.22 -6.29,0 -11.76,1.07 -16.37,3.22 -4.63,2.15 -8.44,5.38 -11.41,9.67 -2.98,4.29 -5.36,8.76 -7.19,13.4 -1.8,4.63 -3.14,10.4 -3.97,17.34 -0.83,6.96 -1.32,13.07 -1.48,18.36 -0.16,5.3 -0.25,11.75 -0.25,19.34 0,7.61 0.08,14.05 0.25,19.34 0.16,5.29 0.65,11.41 1.48,18.36 0.82,6.95 2.16,12.72 3.97,17.35 1.82,4.63 4.21,9.11 7.19,13.4 2.97,4.28 6.79,7.51 11.41,9.67zm262.26 39.92l0 0 0 90.76c0,1.99 -0.07,3.31 -0.25,3.96 -0.17,0.66 -0.92,1.49 -2.22,2.48 -1.33,1 -3.63,1.82 -6.96,2.48l-45.64 9.43c-2.63,0.99 -4.77,0.83 -6.44,-0.49 -0.98,-0.67 -1.47,-3.8 -1.47,-9.43l0 -251.43c0,-31.42 -2.48,-54.56 -7.45,-69.42 -1.32,-4.31 -1.97,-6.96 -1.97,-7.95 0,-2.31 1.83,-4.14 5.46,-5.45l37.69 -12.4c3.64,-2 7.02,-2.32 10.17,-1 3.13,1.33 5.86,5.3 8.17,11.9 0.66,1.33 1.25,2.74 1.73,4.22 0.51,1.49 1.01,3.14 1.49,4.97 0.5,1.8 0.93,3.22 1.24,4.21 18.53,-17.19 39.18,-25.78 62,-25.78 27.78,0 48.77,10.23 62.98,30.74 16.19,22.81 24.31,55.54 24.31,98.19 0,43.64 -8.28,76.7 -24.81,99.19 -16.86,22.48 -40.64,33.72 -71.42,33.72 -14.54,0 -30.07,-4.29 -46.61,-12.9zm0 -180.52l0 0 0 134.4c10.25,6.29 22.16,9.43 35.71,9.43 16.86,0 28.94,-6.94 36.2,-20.82 5.29,-10.58 7.94,-31.92 7.94,-63.97 0,-26.46 -3.63,-46.45 -10.91,-60.01 -6.61,-11.9 -16.88,-17.85 -30.74,-17.85 -13.56,0 -26.31,6.28 -38.2,18.84zm271.69 -7.93l0 0 0 185.96c0,3 -0.43,4.9 -1.25,5.72 -0.82,0.82 -2.71,1.24 -5.7,1.24l-49.09 0c-2.97,0 -4.88,-0.42 -5.7,-1.24 -0.82,-0.82 -1.25,-2.72 -1.25,-5.72l0 -231.09c0,-2.99 0.43,-4.89 1.25,-5.69 0.82,-0.84 2.73,-1.25 5.7,-1.25l148.28 0c4.62,0 7.35,0.99 8.17,2.98 0.82,1.98 0.58,4.29 -0.74,6.95l-6.95 35.21c-0.65,4.63 -3.14,6.94 -7.42,6.94l-85.31 0zm308.4 -27.78l0 0c20.81,21.83 31.23,54.56 31.23,98.2 0,43.65 -10.42,76.38 -31.23,98.21 -20.84,21.82 -46.29,32.72 -76.38,32.72 -30.1,0 -55.55,-10.91 -76.39,-32.72 -20.82,-21.83 -31.24,-54.56 -31.24,-98.21 0,-43.64 10.42,-76.37 31.24,-98.2 20.84,-21.82 46.29,-32.71 76.39,-32.71 30.09,0 55.54,10.9 76.38,32.71zm-92.75 176.31l0 0c4.63,2.15 10.07,3.22 16.37,3.22 6.27,0 11.73,-1.07 16.36,-3.22 4.62,-2.16 8.44,-5.39 11.4,-9.67 3,-4.29 5.38,-8.78 7.18,-13.4 1.82,-4.63 3.16,-10.4 3.97,-17.35 0.84,-6.95 1.34,-13.07 1.5,-18.36 0.16,-5.29 0.24,-11.73 0.24,-19.34 0,-7.6 -0.07,-14.04 -0.24,-19.34 -0.16,-5.29 -0.66,-11.4 -1.5,-18.36 -0.81,-6.94 -2.15,-12.71 -3.97,-17.34 -1.8,-4.64 -4.19,-9.11 -7.18,-13.4 -2.95,-4.29 -6.78,-7.52 -11.4,-9.67 -4.63,-2.15 -10.08,-3.22 -16.36,-3.22 -6.3,0 -11.75,1.07 -16.37,3.22 -4.63,2.15 -8.44,5.38 -11.41,9.67 -2.99,4.29 -5.38,8.76 -7.19,13.4 -1.82,4.63 -3.14,10.4 -3.97,17.34 -0.82,6.96 -1.32,13.07 -1.48,18.36 -0.17,5.3 -0.25,11.75 -0.25,19.34 0,7.61 0.07,14.05 0.25,19.34 0.16,5.29 0.66,11.41 1.48,18.36 0.82,6.95 2.15,12.72 3.97,17.35 1.81,4.63 4.21,9.11 7.19,13.4 2.97,4.28 6.78,7.51 11.41,9.67zm282.59 44.38l0 0 -79.35 0c-2.97,0 -4.88,-0.42 -5.7,-1.24 -0.82,-0.82 -1.25,-2.72 -1.25,-5.72l0 -231.09c0,-2.99 0.43,-4.89 1.25,-5.69 0.82,-0.84 2.73,-1.25 5.7,-1.25l75.87 0c40.65,0 67.46,4.29 80.35,12.9 16.18,11.25 24.28,27.11 24.28,47.61 0,12.9 -3.48,24.22 -10.41,33.96 -6.96,9.76 -16.7,16.62 -29.25,20.6 14.21,2.97 25.7,9.67 34.46,20.09 8.76,10.41 13.13,23.88 13.13,40.41 0,23.8 -8.9,41.49 -26.78,53.06 -7.26,4.96 -15.95,8.68 -26.04,11.17 -10.06,2.48 -18.83,3.97 -26.28,4.46 -7.43,0.5 -17.44,0.75 -29.99,0.75zm-23.3 -198.87l0 0 0 50.58 26.27 0c23.48,0 35.23,-8.92 35.23,-26.78 0,-15.88 -12.25,-23.8 -36.72,-23.8l-24.79 0zm0 95.21l0 0 0 57.53 27.27 0c28.1,0 42.15,-9.74 42.15,-29.24 0,-18.86 -12.22,-28.29 -36.69,-28.29l-32.73 0zm294.5 103.66l0 0 -76.88 0c-2.97,0 -4.88,-0.42 -5.68,-1.24 -0.85,-0.82 -1.25,-2.72 -1.25,-5.72l0 -227.62c0,-3.3 0.66,-5.37 1.99,-6.2 1.31,-0.82 6.43,-2.22 15.38,-4.22l37.69 -7.94c5.29,-1.31 7.94,0.66 7.94,5.96l0 87.29 27.77 0c17.52,0 32.38,1.15 44.62,3.46 12.25,2.32 23.31,7.78 33.24,16.37 16.19,13.55 24.28,32.9 24.28,58.03 0,27.44 -8.75,48.1 -26.28,61.97 -16.19,13.24 -43.79,19.85 -82.81,19.85zm-20.82 -110.1l0 0 0 60.49 24.8 0c7.94,0 14.43,-0.4 19.57,-1.24 5.13,-0.83 10.19,-3.63 15.12,-8.42 4.96,-4.8 7.45,-11.67 7.45,-20.59 0,-20.16 -12.22,-30.25 -36.69,-30.25l-30.25 0zm164.15 103.14l0 0 0 -227.62c0,-1.97 0.09,-3.3 0.25,-3.98 0.16,-0.65 0.9,-1.48 2.23,-2.48 1.33,-0.98 3.63,-1.81 6.92,-2.48l45.62 -9.42c5.32,-1.31 7.95,0.66 7.95,5.96l0 240.01c0,3 -0.4,4.9 -1.25,5.72 -0.82,0.82 -2.71,1.24 -5.69,1.24l-49.1 0c-2.97,0 -4.89,-0.42 -5.71,-1.24 -0.82,-0.82 -1.23,-2.72 -1.23,-5.72zm148.68 0l0 0 0 -227.62c0,-1.97 0.1,-3.3 0.27,-3.98 0.16,-0.65 0.91,-1.48 2.22,-2.48 1.33,-0.98 3.64,-1.81 6.93,-2.48l45.64 -9.42c5.28,-1.31 7.94,0.66 7.94,5.96l0 103.15c0,15.2 -0.82,33.05 -2.48,53.55l1.97 0c9.27,-20.16 19.67,-40.32 31.24,-60.49l48.09 -83.81c1.01,-1.65 2,-3.06 2.98,-4.22 1.01,-1.15 1.74,-2.06 2.26,-2.71 0.47,-0.67 1.3,-1.17 2.46,-1.49 1.16,-0.34 1.9,-0.59 2.22,-0.75 0.34,-0.18 1.41,-0.42 3.24,-0.76 1.8,-0.32 3.05,-0.49 3.72,-0.49l39.66 -7.94c5.32,-1.31 7.94,0.66 7.94,5.96l0 240.01c0,3 -0.4,4.9 -1.23,5.72 -0.83,0.82 -2.73,1.24 -5.7,1.24l-49.1 0c-2.99,0 -4.9,-0.42 -5.71,-1.24 -0.83,-0.82 -1.25,-2.72 -1.25,-5.72l0 -94.2c0,-7.94 0.84,-25.8 2.49,-53.57l-1.99 0c-5.28,11.56 -15.69,31.74 -31.24,60.5l-47.12 87.27c-2.31,3.96 -4.29,6.12 -5.95,6.46 -0.98,0.34 -2.15,0.5 -3.48,0.5l-49.08 0c-2.97,0 -4.89,-0.42 -5.71,-1.24 -0.82,-0.82 -1.25,-2.72 -1.25,-5.72zm140.35 -350.61l0 0 28.78 3.96c2.97,0.67 4.47,3.31 4.47,7.94 0,9.6 -2.99,19.34 -8.92,29.27 -13.23,21.16 -33.73,31.75 -61.51,31.75 -27.76,0 -48.25,-10.59 -61.48,-31.75 -5.97,-9.93 -8.93,-19.67 -8.93,-29.27 0,-4.63 1.49,-7.26 4.48,-7.94l28.75 -3.96c3.97,-0.66 6.61,-0.33 7.94,0.99 0.66,0.66 1.8,3.98 3.47,9.93 3.97,14.21 12.55,21.31 25.77,21.31 13.23,0 21.82,-7.1 25.8,-21.31 1.65,-5.95 2.79,-9.26 3.46,-9.93 1.33,-1.32 3.98,-1.66 7.93,-0.99zm321.31 357.57l0 0 -45.13 0c-3.99,0 -6.46,-0.58 -7.46,-1.73 -0.97,-1.17 -1.48,-2.91 -1.48,-5.23l0 -227.62c0,-3.3 0.66,-5.46 1.98,-6.46 1.34,-0.98 6.11,-2.31 14.39,-3.96l38.67 -7.94c5.3,-1.31 7.95,0.66 7.95,5.96l0 94.71 21.82 0c7.26,0 12.98,-1.23 17.09,-3.71 4.14,-2.48 6.79,-5.13 7.94,-7.94 1.15,-2.81 2.42,-7.03 3.74,-12.64l6.44 -28.27c3.29,-14.54 9.43,-25.62 18.36,-33.23 11.56,-10.25 26.76,-15.37 45.61,-15.37 4.95,0 7.94,1.65 8.92,4.94l9.93 36.21c1.3,4.29 -0.84,6.93 -6.46,7.93l-7.45 1.5c-3.95,0.66 -6.85,1.4 -8.68,2.22 -1.8,0.82 -3.8,2.9 -5.95,6.21 -2.16,3.31 -4.04,8.09 -5.7,14.38l-5.45 19.34c-5.28,17.85 -15.38,28.27 -30.25,31.24l0 1.47c5.62,1.34 10.43,3.17 14.38,5.46 3.98,2.32 7.26,5.79 9.91,10.42 2.64,4.63 4.4,7.94 5.22,9.92 0.82,2 2.38,6.12 4.7,12.42l9.43 27.27c1.65,4.63 2.97,7.92 3.98,9.91 0.98,1.98 2.46,3.79 4.47,5.45 1.97,1.66 4.77,2.82 8.43,3.48l10.91 1.99c5.3,0.66 7.1,4.29 5.45,10.91l-8.92 31.73c-1.32,4.96 -5.63,7.45 -12.9,7.45 -19.83,0 -35.05,-3.64 -45.62,-10.91 -9.92,-6.61 -16.86,-18.19 -20.82,-34.72l-9.43 -41.17c-1.32,-5.61 -2.58,-9.84 -3.74,-12.65 -1.13,-2.8 -3.79,-5.45 -7.9,-7.93 -4.15,-2.48 -9.85,-3.71 -17.13,-3.71l-20.32 0 0 95.69c0,1.67 -0.09,2.82 -0.25,3.49 -0.18,0.66 -1.01,1.41 -2.49,2.23 -1.48,0.82 -3.54,1.24 -6.18,1.24zm299.95 0l0 0 -79.36 0c-2.97,0 -4.86,-0.42 -5.71,-1.24 -0.82,-0.82 -1.23,-2.72 -1.23,-5.72l0 -231.09c0,-2.99 0.4,-4.89 1.23,-5.69 0.85,-0.84 2.74,-1.25 5.71,-1.25l75.89 0c40.66,0 67.44,4.29 80.32,12.9 16.21,11.25 24.32,27.11 24.32,47.61 0,12.9 -3.49,24.22 -10.43,33.96 -6.93,9.76 -16.7,16.62 -29.25,20.6 14.22,2.97 25.72,9.67 34.47,20.09 8.76,10.41 13.14,23.88 13.14,40.41 0,23.8 -8.93,41.49 -26.78,53.06 -7.27,4.96 -15.95,8.68 -26.05,11.17 -10.09,2.48 -18.84,3.97 -26.26,4.46 -7.45,0.5 -17.45,0.75 -30.01,0.75zm-23.33 -198.87l0 0 0 50.58 26.31 0c23.47,0 35.21,-8.92 35.21,-26.78 0,-15.88 -12.25,-23.8 -36.7,-23.8l-24.82 0zm0 95.21l0 0 0 57.53 27.29 0c28.12,0 42.15,-9.74 42.15,-29.24 0,-18.86 -12.24,-28.29 -36.69,-28.29l-32.75 0zm391.22 94.72l0 0 -40.16 16.36c-4.29,1.67 -7.77,0 -10.43,-4.94 -4.29,-8.6 -7.08,-16.53 -8.4,-23.8 -10.26,10.24 -20.33,17.77 -30.28,22.57 -9.89,4.78 -21.65,7.19 -35.19,7.19 -22.17,0 -39.92,-6.86 -53.33,-20.58 -13.37,-13.73 -20.06,-31.99 -20.06,-54.8 0,-28.45 10.06,-49.93 30.24,-64.48 10.91,-7.94 25.88,-13.46 44.88,-16.61 19.01,-3.14 37.11,-4.38 54.3,-3.72l0 -15.38c0,-12.88 -1.98,-21.82 -5.94,-26.77 -5.3,-6.61 -14.23,-9.92 -26.79,-9.92 -12.22,0 -25.63,2.32 -40.18,6.94 -3.64,1.32 -7.02,2.58 -10.15,3.72 -3.17,1.16 -5.46,1.99 -6.96,2.49 -1.48,0.49 -2.81,0.91 -3.97,1.24 -1.14,0.32 -2.08,0.49 -2.71,0.49 -2.31,0 -3.98,-1.66 -4.96,-4.96l-10.43 -31.24c-1.65,-3.3 -1.89,-5.88 -0.73,-7.69 1.14,-1.82 4.86,-4.21 11.15,-7.19 19.16,-8.92 44.46,-13.38 75.86,-13.38 37.04,0 61.82,10.57 74.4,31.73 7.27,12.22 10.91,28.26 10.91,48.1l0 95.72c0,20.16 2.48,36.53 7.44,49.1 3.64,9.26 5.45,14.21 5.45,14.87 0,2.32 -1.31,3.98 -3.97,4.96zm-68.43 -47.61l0 0 0 -54.55c-46.63,-0.66 -69.93,12.57 -69.93,39.68 0,9.92 3.16,18.03 9.45,24.29 6.26,6.28 14.04,9.43 23.3,9.43 13.23,0 25.61,-6.27 37.19,-18.85zm208.71 52.08l0 0 0 90.76c0,1.99 -0.09,3.31 -0.24,3.96 -0.16,0.66 -0.93,1.49 -2.23,2.48 -1.32,1 -3.63,1.82 -6.96,2.48l-45.62 9.43c-2.64,0.99 -4.78,0.83 -6.43,-0.49 -1.01,-0.67 -1.48,-3.8 -1.48,-9.43l0 -251.43c0,-31.42 -2.49,-54.56 -7.46,-69.42 -1.32,-4.31 -1.96,-6.96 -1.96,-7.95 0,-2.31 1.8,-4.14 5.44,-5.45l37.71 -12.4c3.63,-2 7.02,-2.32 10.16,-1 3.14,1.33 5.86,5.3 8.17,11.9 0.66,1.33 1.25,2.74 1.75,4.22 0.47,1.49 0.98,3.14 1.48,4.97 0.48,1.8 0.91,3.22 1.22,4.21 18.53,-17.19 39.19,-25.78 62.01,-25.78 27.77,0 48.78,10.23 62.97,30.74 16.21,22.81 24.31,55.54 24.31,98.19 0,43.64 -8.28,76.7 -24.8,99.19 -16.87,22.48 -40.65,33.72 -71.42,33.72 -14.55,0 -30.08,-4.29 -46.62,-12.9zm0 -180.52l0 0 0 134.4c10.25,6.29 22.16,9.43 35.71,9.43 16.87,0 28.92,-6.94 36.2,-20.82 5.29,-10.58 7.94,-31.92 7.94,-63.97 0,-26.46 -3.64,-46.45 -10.91,-60.01 -6.61,-11.9 -16.86,-17.85 -30.74,-17.85 -13.57,0 -26.28,6.28 -38.2,18.84zm322.78 -10.4l0 0 0 188.43c0,3 -0.41,4.9 -1.24,5.72 -0.83,0.82 -2.74,1.24 -5.71,1.24l-49.11 0c-2.97,0 -4.85,-0.42 -5.68,-1.24 -0.82,-0.82 -1.24,-2.72 -1.24,-5.72l0 -188.43 -56.55 0c-2.65,0 -4.45,-0.51 -5.45,-1.5 -1,-0.98 -1.48,-2.8 -1.48,-5.45l0 -35.71c0,-2.65 0.48,-4.47 1.48,-5.46 1,-0.99 2.8,-1.48 5.45,-1.48l181.01 0c4.64,0 7.26,0.99 7.94,2.98 0.65,1.98 0.49,4.29 -0.51,6.95l-6.92 32.73c-1.34,4.63 -3.81,6.95 -7.45,6.95l-54.54 0zm285.59 186.46l0 0 -40.19 16.36c-4.31,1.67 -7.76,0 -10.42,-4.94 -4.29,-8.6 -7.1,-16.53 -8.43,-23.8 -10.26,10.24 -20.33,17.77 -30.23,22.57 -9.93,4.78 -21.66,7.19 -35.22,7.19 -22.15,0 -39.91,-6.86 -53.31,-20.58 -13.39,-13.73 -20.1,-31.99 -20.1,-54.8 0,-28.45 10.08,-49.93 30.26,-64.48 10.91,-7.94 25.88,-13.46 44.9,-16.61 18.99,-3.14 37.11,-4.38 54.27,-3.72l0 -15.38c0,-12.88 -1.96,-21.82 -5.95,-26.77 -5.28,-6.61 -14.21,-9.92 -26.77,-9.92 -12.22,0 -25.62,2.32 -40.17,6.94 -3.64,1.32 -7.03,2.58 -10.17,3.72 -3.13,1.16 -5.45,1.99 -6.93,2.49 -1.49,0.49 -2.81,0.91 -3.98,1.24 -1.14,0.32 -2.08,0.49 -2.74,0.49 -2.3,0 -3.95,-1.66 -4.93,-4.96l-10.43 -31.24c-1.65,-3.3 -1.89,-5.88 -0.74,-7.69 1.15,-1.82 4.88,-4.21 11.16,-7.19 19.16,-8.92 44.47,-13.38 75.86,-13.38 37.03,0 61.82,10.57 74.37,31.73 7.29,12.22 10.92,28.26 10.92,48.1l0 95.72c0,20.16 2.5,36.53 7.45,49.1 3.63,9.26 5.45,14.21 5.45,14.87 0,2.32 -1.3,3.98 -3.95,4.96zm-68.46 -47.61l0 0 0 -54.55c-46.62,-0.66 -69.92,12.57 -69.92,39.68 0,9.92 3.15,18.03 9.43,24.29 6.28,6.28 14.06,9.43 23.3,9.43 13.24,0 25.63,-6.27 37.19,-18.85zm273.21 -138.85l0 0 -43.17 0 0 6.44c0,67.11 -5.62,115.05 -16.85,143.82 -4.63,11.57 -10.75,21.33 -18.35,29.26 -7.62,7.94 -15.56,13.47 -23.8,16.62 -8.26,3.13 -15.06,5.19 -20.33,6.2 -5.29,0.99 -10.25,1.48 -14.87,1.48 -5.62,0 -9.1,-2.49 -10.42,-7.45l-9.94 -36.69c-1.3,-4.63 0.85,-7.45 6.46,-8.43l8.44 -1.99c9.26,-2.32 16.53,-6.2 21.82,-11.66 5.29,-5.45 9.09,-14.3 11.41,-26.52 4.3,-20.82 6.44,-64.64 6.44,-131.42l0 -22.32c0,-2.99 0.4,-4.89 1.24,-5.69 0.81,-0.84 2.71,-1.25 5.7,-1.25l152.25 0c2.64,0 4.46,0.49 5.44,1.48 1.01,1 1.49,2.81 1.49,5.46l0 231.09c0,3 -0.4,4.9 -1.22,5.72 -0.83,0.82 -2.75,1.24 -5.71,1.24l-49.1 0c-2.64,0 -4.47,-0.5 -5.45,-1.48 -1.01,-1 -1.48,-2.83 -1.48,-5.47l0 -188.43z" style="fill: rgb(232, 232, 196);"/>
      <path class="fil1" d="M541.53 2114.81l0.14 0.04c78.46,37.86 170.36,77.79 241.32,128.26l13.75 10.79 13.19 11.49 12.65 12.05 12.06 12.66 11.45 13.19 10.84 13.78 10.11 14.27 9.47 14.76 8.76 15.25 8.08 15.71 7.29 16.11 6.53 16.58 5.72 16.92 4.9 17.23 4.06 17.66 3.25 17.92 2.27 18.22 1.4 18.51 0.5 18.72 -0.5 18.76 -1.4 18.5 -2.27 18.2 -3.25 17.94 -4.06 17.59 -4.9 17.29 -5.72 16.94 -6.53 16.56 -7.29 16.11 -8.08 15.71 -8.76 15.26 -9.47 14.76 -10.11 14.27 -10.84 13.78 -11.45 13.18 -12.06 12.65 -12.65 12.06 -13.19 11.42 -13.75 10.85 -14.3 10.14 -14.76 9.5 -15.24 8.74 -15.7 8.05 -16.18 7.29 -16.53 6.53 -16.92 5.71 -17.27 4.92 -17.62 4.04 -17.95 3.24 -18.19 2.3 -18.5 1.41 -18.76 0.49 -18.73 -0.49 -18.49 -1.41 -18.23 -2.3 -17.93 -3.24 -17.63 -4.04c-74.68,-21.22 -171.28,-60.96 -238.22,-95.43 -133.41,-66.4 -227.06,-188.51 -227.06,-342.45 0,-205.23 166.45,-371.61 371.64,-371.61 57.75,0 112.42,13.2 161.19,36.69l-0.09 -0.04z"/>
      <path class="fil2" d="M345.65 1861.32l185.32 96.92 3.3 1.62 3.13 1.52 3.08 1.36 2.97 1.2 2.92 1.04 2.8 0.95 2.77 0.76 2.71 0.67 2.7 0.51 2.66 0.35 2.6 0.17 2.66 0.1 2.6 -0.1 2.61 -0.17 2.66 -0.35 2.69 -0.51 2.71 -0.67 2.78 -0.76 2.83 -0.95 2.89 -1.04 2.99 -1.2 3.06 -1.36 3.19 -1.52 3.23 -1.62 3.4 -1.8 3.54 -1.89 3.64 -2.06 3.79 -2.21 11.93 -7.07 11.82 -7.25 11.79 -7.39 11.73 -7.46 11.64 -7.58 11.57 -7.69 11.49 -7.74 11.33 -7.79 11.21 -7.88 11.08 -7.88 10.93 -7.87 10.76 -7.92 10.57 -7.89 10.36 -7.87 10.2 -7.84 9.97 -7.74 9.76 -7.68 9.5 -7.61 9.28 -7.51 8.96 -7.4 8.74 -7.24 8.4 -7.12 8.1 -6.98 7.85 -6.74 7.47 -6.62 7.16 -6.39 6.74 -6.16 6.46 -5.9 6.02 -5.72 5.66 -5.45 5.28 -5.13 4.8 -4.86 1.55 -1.47 1.52 -1.53 1.53 -1.5 1.5 -1.52 1.47 -1.48 1.46 -1.58 1.37 -1.53 1.26 -1.57 1.23 -1.62 1.03 -1.62 0.93 -1.62 0.79 -1.7 0.59 -1.77 0.39 -1.74 0.22 -1.86 -0.02 -1.85 -0.2 -1.71 -0.32 -1.66 -0.49 -1.63 -0.63 -1.57 -0.81 -1.57 -0.95 -1.44 -1.18 -1.4 -1.35 -1.31 -1.55 -1.22 -1.8 -1.08 -64.61 -42.62 82.74 -1422.06 0.13 -3.42 -0.13 -3.37 -0.28 -3.34 -0.48 -3.19 -0.65 -3.2 -0.83 -3.04 -1.01 -3.03 -1.18 -2.97 -1.29 -2.84 -1.48 -2.79 -1.64 -2.7 -1.78 -2.61 -1.91 -2.51 -2.01 -2.43 -2.16 -2.34 -2.31 -2.26 -2.38 -2.16 -2.51 -2.03 -177.54 -133.5c-12.15,-9.51 -27.77,-15.63 -44.2,-17.34 -214.79,-22.11 -408.95,-22.11 -623.74,0 -37.55,3.88 -70.8,30.97 -68.62,68.6l84.82 1457.58c1.75,30.65 0.58,33.27 -17.29,33.44 -4.69,0.04 -28.84,-0.09 -32.82,0 -18.8,0.37 -24.97,9.28 -25.67,18.45 -0.79,10.36 9.04,18.32 17.13,26.52 50.41,51.23 175.09,155.8 304.68,231.99 5.28,3.13 10.13,5.82 14.68,8.16z"/>
      <path class="fil3" d="M68.71 16.59c-37.53,3.88 -70.79,30.92 -68.61,68.6l84.87 1457.58c1.74,30.66 0.53,33.27 -17.35,33.44 -4.63,0.06 -28.85,-0.09 -32.75,0 -18.87,0.37 -25,9.28 -25.72,18.47 -0.81,10.35 9.05,18.32 17.12,26.52 50.41,51.22 175.1,155.78 304.68,232 42.23,24.8 57.09,24.8 99.27,0 129.58,-76.22 254.27,-180.78 304.69,-232 8.05,-8.2 17.91,-16.17 17.09,-26.52 -0.67,-9.19 -6.83,-18.1 -25.66,-18.47 -3.95,-0.09 -28.13,0.06 -32.81,0 -17.83,-0.17 -19.02,-2.78 -17.28,-33.44l84.84 -1457.58c2.17,-37.67 -31.08,-64.72 -68.61,-68.6 -214.84,-22.09 -408.92,-22.09 -623.78,0z"/>
      <path class="fil4" d="M380.42 2078.16c205.2,0 371.63,166.37 371.63,371.63 0,205.22 -166.43,371.59 -371.63,371.59 -205.21,0 -371.64,-166.37 -371.64,-371.59 0,-205.26 166.43,-371.63 371.64,-371.63z"/>
      <path class="fil5" d="M1611.07 218.8c0,-8.07 -6.92,-13.83 -15,-13.83l-191.03 0c-11.55,0 -16.11,5.76 -16.11,17.29l0 755.54c0,13.78 2.3,17.28 19.56,17.28l441.1 0 0 86.74c0,18.41 8.15,24.58 23.06,23.05l154.21 -15.8c14.89,-1.52 20.72,-8.05 20.72,-21.87l0 -196.54c0,-14.95 -4.66,-23.05 -23.02,-23.05l-55.3 0 0 -628.82c0,-12.66 -8.09,-13.83 -16.15,-13.83l-193.34 0c-9.23,0 -12.7,3.47 -12.7,13.83l0 624.23 -136.03 0 0 -624.23zm1029.62 11.51l0 0c1.09,-5.77 2.3,-11.51 2.3,-15 0,-8.04 -4.63,-10.34 -19.56,-10.34l-467.37 0c-21.89,0 -23.06,3.47 -23.06,23.04l0 742.86c0,21.87 1.17,24.21 23.06,24.21l454.66 0c19.6,0 27.46,-4.91 24.17,-24.21l-17.77 -104.8c-3.65,-21.57 -4.64,-24.17 -24.17,-24.17l-237.76 0 0 -178.51 203.72 0c19.57,0 24.18,-4.65 24.18,-24.22l0 -105.97c0,-21.87 -4.62,-24.16 -24.18,-24.16l-203.72 0 0 -150.89 239.42 0c15,0 22.47,-4.5 25.36,-19.59l20.73 -108.26zm714.85 740.56l0 0 0 -742.86c0,-19.57 -2.3,-23.04 -24.15,-23.04l-173.79 0c-21.88,0 -24.18,3.47 -24.18,23.04l0 284.47 -149.84 0 0 -284.47c0,-19.57 -4.66,-23.04 -24.23,-23.04l-173.75 0c-21.88,0 -24.21,3.47 -24.21,23.04l0 742.86c0,21.87 2.34,24.21 24.21,24.21l173.75 0c19.57,0 24.23,-2.35 24.23,-24.21l0 -306.36 149.84 0 0 306.36c0,21.87 2.3,24.21 24.18,24.21l173.79 0c21.85,0 24.15,-2.35 24.15,-24.21zm698.34 -739.43l0 0c1.45,-6.85 2.29,-11.49 2.29,-14.95 0,-8.05 -4.63,-11.52 -20.74,-11.52l-577.92 0c-21.89,0 -29.84,4.32 -24.21,23.04l35.59 117.49c6.35,20.89 2.3,24.17 24.23,24.17l147.39 0 0 601.2c0,21.87 1.16,24.21 23.08,24.21l176.08 0c21.87,0 23.01,-2.35 23.01,-24.21l0 -601.2 141.66 0c17.27,0 20.74,-3.46 24.21,-19.59l25.33 -118.65zm659.13 196.98l0 0c0,-67.97 -25.15,-134.99 -66.79,-171.64 -44.69,-39.34 -104.84,-51.8 -215.35,-51.8l-268.09 0c-21.88,0 -23.06,1.17 -23.06,23.04l0 742.86c0,21.87 1.13,24.21 23.06,24.21l174.92 0c19.55,0 24.15,-2.35 24.15,-24.21l0 -281.02 77.07 0c165.82,0 274.08,-103.68 274.08,-261.44zm-207.15 10.36l0 0c0,74.86 -29.97,101.36 -116.36,101.36l-27.64 0 0 -195.79 36.86 0c76.05,0 107.14,24.16 107.14,94.43z" style="fill: rgb(202, 212, 224);"/>
      <path class="fil5" d="M 1836.574 1248.806 L 1431.54 1256.66 C 1409.65 1256.66 1419.559 1260.652 1419.559 1282.482 L 1408.47 2023.74 C 1408.47 2043.28 1409.65 2046.79 1431.54 2046.79 L 1606.45 2046.79 C 1626.04 2046.79 1630.64 2043.31 1630.64 2023.74 L 1630.64 1421.38 L 1818.51 1421.38 C 1835.79 1421.38 1840.84 1419.14 1843.86 1401.79 L 1880.086 1296.935 C 1880.906 1292.245 1881.471 1263.015 1881.471 1259.555 C 1881.471 1246.885 1857.364 1248.806 1836.574 1248.806 Z M 2560 1640.18 C 2560 1379.91 2432.32 1237.09 2228.44 1237.09 C 1981.96 1237.09 1894.59 1455.93 1894.59 1640.18 C 1894.59 1918.91 2018.8 2066.37 2223.85 2066.37 C 2431.15 2066.37 2560 1915.48 2560 1640.18 Z M 2333.22 1650.59 C 2333.22 1844.04 2292.96 1921.24 2228.44 1921.24 C 2163.93 1921.24 2121.31 1846.34 2121.31 1655.16 C 2121.31 1464 2165.12 1382.21 2228.44 1382.21 C 2294.12 1382.21 2333.22 1455.92 2333.22 1650.58 L 2333.22 1650.59 Z M 3229 1480.12 C 3229 1412.15 3203.85 1345.12 3162.21 1308.47 C 3117.46 1269.14 3057.37 1256.66 2946.8 1256.66 L 2678.71 1256.66 C 2656.83 1256.66 2655.65 1257.84 2655.65 1279.72 L 2655.65 2022.57 C 2655.65 2044.45 2656.83 2046.79 2678.71 2046.79 L 2853.64 2046.79 C 2873.2 2046.79 2877.8 2044.44 2877.8 2022.57 L 2877.8 1741.56 L 2954.87 1741.56 C 3120.73 1741.56 3228.99 1637.89 3228.99 1480.12 L 3229 1480.12 Z M 3021.8 1490.47 C 3021.8 1565.34 2991.82 1591.84 2905.49 1591.84 L 2877.81 1591.84 L 2877.81 1396.04 L 2914.66 1396.04 C 2990.7 1396.04 3021.8 1420.2 3021.8 1490.47 Z M 3961.82 1640.19 C 3961.82 1379.92 3834.07 1237.1 3630.19 1237.1 C 3383.74 1237.1 3296.33 1455.94 3296.33 1640.19 C 3296.33 1918.92 3420.57 2066.38 3625.6 2066.38 C 3832.94 2066.38 3961.82 1915.49 3961.82 1640.19 Z M 3735.04 1650.6 C 3735.04 1844.05 3694.69 1921.25 3630.19 1921.25 C 3565.7 1921.25 3523.1 1846.35 3523.1 1655.17 C 3523.1 1464.01 3566.86 1382.22 3630.19 1382.22 C 3695.87 1382.22 3735.04 1455.93 3735.04 1650.59 L 3735.04 1650.6 Z M 4520.96 2046.8 L 4520.96 2133.53 C 4520.96 2148.48 4529.05 2156.57 4544.02 2156.57 L 4695.9 2156.57 C 4710.89 2156.57 4718.95 2148.52 4718.95 2133.53 L 4718.95 1922.38 C 4718.95 1907.43 4714.3 1899.33 4695.9 1899.33 L 4647.56 1899.33 L 4647.56 1280.84 C 4647.56 1267.02 4645.21 1256.66 4624.51 1256.66 L 4143.31 1256.66 C 4133.01 1256.66 4120.29 1260.18 4120.29 1279.72 L 4120.29 1446.71 C 4120.29 1573.37 4109.69 1651.71 4099.57 1700.1 C 4079.79 1794.5 4038.51 1880.92 4030.47 1899.33 L 3986.65 1899.33 C 3968.3 1899.33 3963.65 1907.48 3963.65 1922.38 L 3963.65 2133.53 C 3963.65 2148.48 3968.24 2156.57 3986.65 2156.57 L 4138.59 2156.57 C 4153.56 2156.57 4161.62 2148.52 4161.62 2133.53 L 4161.62 2046.8 L 4520.96 2046.8 Z M 4435.59 1899.33 L 4251.29 1899.33 C 4273.17 1850.98 4297.43 1788.78 4312.35 1711.62 C 4326.15 1640.22 4330.78 1572.26 4330.78 1499.68 L 4330.78 1404.08 L 4435.59 1404.08 L 4435.59 1899.33 Z M 5500.76 2019.16 L 5272.5 1276.27 C 5266.83 1257.8 5265.52 1256.67 5247.17 1256.67 L 5023.95 1256.67 C 5005.58 1256.67 5003.86 1258.89 4998.59 1276.27 L 4771.95 2021.46 C 4770.16 2027.31 4768.48 2030.64 4768.48 2035.28 C 4768.48 2042.17 4773.13 2046.81 4790.37 2046.81 L 4971.11 2046.81 C 4989.52 2046.81 4991.53 2045.54 4996.44 2027.21 L 5043.68 1849.82 L 5216.41 1849.82 L 5263.64 2027.21 C 5268.5 2045.5 5270.54 2046.81 5288.97 2046.81 L 5481.2 2046.81 C 5497.33 2046.81 5503.07 2042.17 5503.07 2032.99 C 5503.07 2029.51 5501.96 2024.89 5500.76 2019.17 L 5500.76 2019.16 Z M 5185.34 1718.5 L 5064.37 1718.5 L 5127.75 1427.41 C 5144.08 1525.26 5165.05 1621.43 5185.34 1718.5 Z" style="fill: rgb(230, 220, 212);"/>
    </g>
  </g>
</svg>